<?xml version="1.0" encoding="UTF-8" standalone="no"?>
<svg
   xmlns="http://www.w3.org/2000/svg"
   id="svg34"
   version="1.1"
   viewBox="0 0 111.42 125">
  <title id="title29">pixxio_avatar_monochrome</title>
  <g style="fill:#ffffff" transform="matrix(3.7934302,0,0,3.6544533,86.753783,63.27505)" id="logo">
    <path
       id="path31"
       style="fill:#ffffff;fill-rule:nonzero"
       d="m -8.139,-5.286 c -2.801,0.003 -5.106,2.308 -5.109,5.109 v 5.11 h 5.109 c 2.802,-0.003 5.107,-2.308 5.11,-5.11 -0.003,-2.802 -2.308,-5.106 -5.11,-5.109 M -13.247,10.1 c 1.587,0.789 3.336,1.2 5.108,1.2 6.293,-0.007 11.47,-5.184 11.475,-11.477 -0.007,-6.292 -5.183,-11.468 -11.475,-11.475 -6.292,0.007 -11.468,5.183 -11.475,11.475 -10e-4,1.773 0.41,3.523 1.2,5.111 h 2.064 v -5.111 c 0.005,-4.503 3.708,-8.207 8.211,-8.213 4.504,0.005 8.208,3.709 8.213,8.213 -0.005,4.503 -3.71,8.207 -8.213,8.212 h -5.108 z m 5.108,4.3 c -2.624,0.002 -5.2,-0.706 -7.454,-2.048 l -0.757,-0.45 V 8.036 h -3.865 L -20.666,7.28 c -1.343,-2.256 -2.051,-4.833 -2.05,-7.458 0.009,-7.993 6.584,-14.568 14.577,-14.577 7.994,0.009 14.569,6.584 14.578,14.578 C 6.43,7.817 -0.145,14.391 -8.139,14.4" />
  </g>
</svg>
